<svg id="Capa_1" enable-background="new 0 0 512 512" height="512" viewBox="0 0 512 512" width="512" xmlns="http://www.w3.org/2000/svg"><g><g><g><g><path d="m448.958 28.868h-402.779c-2.56 0-4.692 2.05-4.696 4.61v.047c0 21.142 10.69 41.994 24.065 42.106.096.001.192.001.288.001h47.412 281.896c12.976 0 23.494 10.519 23.494 23.494v379.064h33.004c10.425 0 18.876-8.451 18.876-18.876v-442.714c-.001 0-3.601 12.268-21.56 12.268z" fill="#a8d0d5"/><path d="m392.076 496.068v-408.4c0-.44-.012-.878-.036-1.312-.593-10.927-9.999-19.305-20.942-19.305h-9.048-239.631-47.412c-18.515 0-33.525-15.01-33.525-33.525v459.599c0 10.425 8.451 18.876 18.876 18.876h307.912 7.615c8.764 0 16.1-6.969 16.19-15.733.001-.067.001-.134.001-.2z" fill="#eff3f5"/><path d="m453.708 0h-378.7c-18.516 0-33.525 15.01-33.525 33.525v.093h412.226c9.283 0 16.809-7.526 16.809-16.809-.001-9.283-7.526-16.809-16.81-16.809z" fill="#8db9c2"/><g><path d="m404.315 67.05h-42.264c12.976 0 23.494 10.519 23.494 23.494v402.58c0 10.425-8.451 18.876-18.876 18.876h42.264c10.425 0 18.876-8.451 18.876-18.876v-402.58c.001-12.975-10.518-23.494-23.494-23.494z" fill="#daeaef"/></g></g><g><g><path d="m382.294 283.829h-287.395c-4.267 0-7.726-3.459-7.726-7.726s3.459-7.726 7.726-7.726h287.395c4.267 0 7.726 3.459 7.726 7.726s-3.459 7.726-7.726 7.726z" fill="#a8d0d5"/></g><g><path d="m382.294 338.514h-287.395c-4.267 0-7.726-3.459-7.726-7.726s3.459-7.726 7.726-7.726h287.395c4.267 0 7.726 3.459 7.726 7.726s-3.459 7.726-7.726 7.726z" fill="#a8d0d5"/></g><g><path d="m382.294 393.199h-124.541c-4.267 0-7.726-3.459-7.726-7.726s3.459-7.726 7.726-7.726h124.541c4.267 0 7.726 3.459 7.726 7.726s-3.459 7.726-7.726 7.726z" fill="#a8d0d5"/></g><g><path d="m382.294 447.885h-124.541c-4.267 0-7.726-3.459-7.726-7.726s3.459-7.726 7.726-7.726h124.541c4.267 0 7.726 3.459 7.726 7.726s-3.459 7.726-7.726 7.726z" fill="#a8d0d5"/></g><path d="m106.085 449.27h105.385c6.178 0 11.187-5.008 11.187-11.187v-49.149c0-6.178-5.008-11.187-11.187-11.187h-105.385c-6.178 0-11.187 5.008-11.187 11.187v49.149c.001 6.178 5.009 11.187 11.187 11.187z" fill="#fbbe66"/><path d="m211.47 377.748h-31.147v60.335c0 6.178-5.008 11.187-11.187 11.187h42.333c6.178 0 11.187-5.008 11.187-11.187v-49.149c0-6.178-5.008-11.186-11.186-11.186z" fill="#fcb143"/></g><g fill="#fc8086"><path d="m146.048 115.371c-.025 0-.051 0-.076.001-4.266.041-7.691 3.533-7.65 7.8l.484 50.049-37.55-54.375c-1.921-2.782-5.428-3.992-8.656-2.986s-5.427 3.995-5.427 7.376v73.84c0 4.267 3.459 7.726 7.726 7.726s7.726-3.459 7.726-7.726v-49.057l35.845 51.906c2.331 3.367 6.195 4.805 9.843 3.666 3.737-1.167 6.152-4.703 6.151-9.083l-.692-71.485c-.041-4.242-3.492-7.652-7.724-7.652z"/><path d="m206.901 131.16c4.267 0 7.726-3.459 7.726-7.726s-3.459-7.726-7.726-7.726h-30.887c-4.267 0-7.726 3.459-7.726 7.726v73.303c0 4.267 3.459 7.726 7.726 7.726h30.887c4.267 0 7.726-3.459 7.726-7.726s-3.459-7.726-7.726-7.726h-23.161v-21.2h20.884c4.267 0 7.726-3.459 7.726-7.726s-3.459-7.726-7.726-7.726h-20.884v-21.2h23.161z"/><path d="m369.131 153.42c-9.332-3.442-18.001-7.197-20.397-8.247-1.956-1.487-2.899-3.823-2.536-6.35.229-1.594 1.364-5.484 6.951-7.168 11.237-3.385 21.495 4.772 21.761 4.986 3.265 2.716 8.117 2.286 10.853-.969 2.745-3.266 2.323-8.14-.943-10.885-.673-.565-16.694-13.783-36.129-7.926-9.639 2.904-16.456 10.479-17.789 19.767-1.245 8.679 2.515 17.027 9.814 21.785.342.222.7.417 1.072.583.426.19 10.569 4.705 21.996 8.92 7.615 2.809 11.504 7.097 10.671 11.766-.848 4.751-6.474 9.666-14.421 9.666-7.775 0-15.272-3.151-20.056-8.428-2.865-3.161-7.75-3.402-10.913-.536-3.162 2.865-3.402 7.751-.536 10.913 7.663 8.456 19.441 13.503 31.504 13.503 14.612 0 27.352-9.63 29.632-22.401 1.734-9.708-2.75-22.419-20.534-28.979z"/><path d="m314.855 115.655c-4.187-.833-8.252 1.885-9.085 6.069l-9.747 48.975-15.366-49.878c-1.255-4.078-5.581-6.364-9.658-5.109-2.806.864-4.764 3.182-5.303 5.872l-15.203 49.118-9.713-49.106c-.828-4.186-4.896-6.908-9.078-6.08-4.186.828-6.908 4.892-6.08 9.078l14.413 72.868c.073.37.173.733.299 1.088 1.331 3.745 4.882 6.249 8.852 6.249h.065c3.996-.028 7.545-2.588 8.831-6.371.023-.067.045-.135.065-.202l15.129-48.878 15.062 48.89c.032.105.067.209.104.312 1.331 3.745 4.882 6.249 8.852 6.249h.065c3.996-.028 7.545-2.588 8.831-6.371.109-.32.196-.647.263-.979l14.471-72.71c.833-4.183-1.884-8.251-6.069-9.084z"/></g></g></g></g></svg>